<?xml version="1.0" encoding="utf-8"?>
<!-- Generator: Adobe Illustrator 22.1.0, SVG Export Plug-In . SVG Version: 6.00 Build 0)  -->
<svg version="1.1" id="Layer_1" xmlns="http://www.w3.org/2000/svg" xmlns:xlink="http://www.w3.org/1999/xlink" x="0px" y="0px"
	 viewBox="0 0 18 18" style="enable-background:new 0 0 18 18;" xml:space="preserve">
<style type="text/css">
	.st0{fill:#E7247A;}
</style>
<path class="st0" d="M17.8,16.6L12,10.8c0.9-1.1,1.4-2.6,1.4-4.1c0-3.7-3-6.7-6.7-6.7S0,3,0,6.7s3,6.7,6.7,6.7c1.5,0,3-0.5,4.1-1.4
	l5.8,5.8c0.2,0.2,0.4,0.2,0.6,0.2c0.2,0,0.4-0.1,0.6-0.2C18.1,17.4,18.1,16.9,17.8,16.6z M1.7,6.7c0-2.8,2.3-5,5-5s5,2.3,5,5
	s-2.3,5-5,5S1.7,9.5,1.7,6.7z"/>
</svg>
